<svg width="53" height="53" viewBox="0 0 53 53" fill="none" xmlns="http://www.w3.org/2000/svg">
<path d="M48.9948 52.42H12.1819C10.9349 38.6399 10.6845 24.7877 11.4326 10.9716C11.4826 10.1271 11.7651 9.31289 12.249 8.61896C12.7328 7.92503 13.399 7.37844 14.1741 7.03953C19.5829 4.65189 24.9022 2.34066 30.0838 0.311277C31.046 -0.0668011 32.1091 -0.101549 33.094 0.212946C38.2624 1.85568 43.5402 3.78672 48.8965 5.83795C49.7198 6.15227 50.4351 6.69703 50.9569 7.40712C51.4787 8.11721 51.7849 8.96259 51.839 9.84213C52.6232 23.3079 52.4612 36.812 51.3541 50.2551C51.3042 50.8461 51.0338 51.3968 50.5968 51.7979C50.1597 52.1989 49.5879 52.421 48.9948 52.42Z" fill="#79CF00"/>
<path d="M25.4395 52.4198H2.91094C2.31715 52.4218 1.74442 52.1997 1.30711 51.7981C0.869796 51.3964 0.600037 50.8446 0.551657 50.2528C-0.0341534 42.3742 -0.152973 34.4678 0.195665 26.5752C0.233635 25.6477 0.550291 24.7531 1.10444 24.0084C1.6586 23.2637 2.42449 22.7034 3.302 22.4006C7.5246 20.9763 11.6817 19.6831 15.7383 18.7044C17.1667 18.3653 18.6705 18.5816 19.9455 19.3095C21.1411 19.9823 22.3485 20.6654 23.5674 21.3586C24.2384 21.7359 24.8043 22.2751 25.2134 22.9273C25.6224 23.5794 25.8617 24.3235 25.9092 25.0919C26.394 34.2009 26.237 43.3328 25.4395 52.4198Z" fill="#1A7B35"/>
<path d="M17.7284 50.9826C17.4387 50.9826 17.1608 50.8675 16.956 50.6627C16.7511 50.4579 16.6361 50.18 16.6361 49.8903V21.7104C16.6361 21.4207 16.7511 21.143 16.956 20.9382C17.1608 20.7333 17.4387 20.6182 17.7284 20.6182C18.018 20.6182 18.2958 20.7333 18.5006 20.9382C18.7054 21.143 18.8206 21.4207 18.8206 21.7104V49.8903C18.8206 50.18 18.7054 50.4579 18.5006 50.6627C18.2958 50.8675 18.018 50.9826 17.7284 50.9826Z" fill="#79CF00"/>
<path d="M31.2197 24.7142L52.3261 15.6421C52.3261 15.6421 52.5577 22.8858 52.3261 26.4225C52.289 26.499 31.4797 31.3965 31.4797 31.3965L31.2197 24.7142Z" fill="#99E726"/>
<path d="M31.117 36.7203L52.3261 30.3066C52.3261 30.3066 52.5577 29.9833 52.3261 33.5199C52.2868 33.5986 31.3856 40.4645 31.3856 40.4645L31.117 36.7203Z" fill="#99E726"/>
<path d="M31.768 51.7602C31.4784 51.7602 31.2005 51.6451 30.9957 51.4402C30.7908 51.2354 30.6758 50.9577 30.6758 50.668V3.01998C30.6758 2.7303 30.7908 2.4525 30.9957 2.24766C31.2005 2.04283 31.4784 1.92773 31.768 1.92773C32.0577 1.92773 32.3355 2.04283 32.5403 2.24766C32.7451 2.4525 32.8603 2.7303 32.8603 3.01998V50.6614C32.8611 50.8054 32.8335 50.9482 32.7789 51.0814C32.7244 51.2147 32.6442 51.3358 32.5427 51.438C32.4412 51.5401 32.3204 51.6212 32.1875 51.6765C32.0546 51.7318 31.912 51.7602 31.768 51.7602Z" fill="#1A7B35"/>
<path d="M4.47719 50.604C4.18751 50.604 3.90978 50.4888 3.70494 50.284C3.50011 50.0791 3.38495 49.8014 3.38495 49.5117V25.644C3.38495 25.3543 3.50011 25.0765 3.70494 24.8716C3.90978 24.6668 4.18751 24.5518 4.47719 24.5518C4.76687 24.5518 5.04474 24.6668 5.24957 24.8716C5.45441 25.0765 5.56943 25.3543 5.56943 25.644V49.5051C5.5703 49.649 5.54274 49.7919 5.48823 49.9252C5.43373 50.0585 5.35335 50.1796 5.25184 50.2817C5.15033 50.3838 5.02973 50.4648 4.89678 50.5201C4.76384 50.5754 4.62118 50.604 4.47719 50.604Z" fill="#79CF00"/>
<path d="M10.4081 50.7601C10.1184 50.7601 9.84058 50.6451 9.63575 50.4402C9.43091 50.2354 9.31589 49.9575 9.31589 49.6678V23.5195C9.31589 23.2298 9.43091 22.9521 9.63575 22.7472C9.84058 22.5424 10.1184 22.4272 10.4081 22.4272C10.6978 22.4272 10.9755 22.5424 11.1804 22.7472C11.3852 22.9521 11.5004 23.2298 11.5004 23.5195V49.6525C11.5024 49.7972 11.4757 49.9409 11.4217 50.0752C11.3677 50.2094 11.2875 50.3317 11.1858 50.4347C11.0842 50.5378 10.9632 50.6197 10.8297 50.6755C10.6962 50.7314 10.5529 50.7601 10.4081 50.7601Z" fill="#79CF00"/>
</svg>
