<svg width="57" height="48" viewBox="0 0 57 48" fill="none" xmlns="http://www.w3.org/2000/svg">
<path d="M7.84969 26.6128H2.51544C1.89633 26.6128 1.39444 27.1147 1.39444 27.7338V46.3799C1.39444 46.999 1.89633 47.5009 2.51544 47.5009H7.84969C8.4688 47.5009 8.97069 46.999 8.97069 46.3799V27.7338C8.97069 27.1147 8.4688 26.6128 7.84969 26.6128Z" fill="#212721"/>
<path d="M49.1509 47.4995H54.4851C55.1042 47.4995 55.6061 46.9976 55.6061 46.3785V27.7324C55.6061 27.1133 55.1042 26.6114 54.4851 26.6114H49.1509C48.5318 26.6114 48.0299 27.1133 48.0299 27.7324V46.3785C48.0299 46.9976 48.5318 47.4995 49.1509 47.4995Z" fill="#212721"/>
<path d="M46.3148 3.79461C45.9485 3.0494 45.3896 2.41573 44.696 1.95929C44.0023 1.50285 43.1992 1.24026 42.3699 1.19873H14.6418C13.8112 1.23901 13.0067 1.50103 12.3117 1.95754C11.6167 2.41404 11.0566 3.04838 10.6898 3.79461L2.37729 23.3504C1.8835 24.5029 1.71907 25.7698 1.90229 27.0102L3.63842 38.6477C3.8854 40.2715 4.70724 41.7526 5.95434 42.8214C7.20143 43.8902 8.79086 44.4757 10.4333 44.4712H46.5689C48.2113 44.4757 49.8008 43.8902 51.0479 42.8214C52.295 41.7526 53.1168 40.2715 53.3638 38.6477L55.0999 27.0102C55.2831 25.7698 55.1187 24.5029 54.6249 23.3504L46.3148 3.79461Z" fill="#00AAFF"/>
<path d="M13.6364 27.3141L12.57 29.3851C12.5024 29.5152 12.4 29.6241 12.2742 29.6996C12.1484 29.775 12.0042 29.8142 11.8575 29.8126H7.99101C7.16607 29.8151 6.36632 29.5285 5.7307 29.0026C5.09507 28.4768 4.66374 27.7449 4.51164 26.9341C4.49147 26.8204 4.49651 26.7037 4.52639 26.5922C4.55626 26.4807 4.61026 26.3771 4.68456 26.2888C4.75886 26.2005 4.85165 26.1295 4.95637 26.081C5.0611 26.0324 5.17521 26.0074 5.29064 26.0078H10.4681C10.5777 26.0071 10.6862 26.0298 10.7864 26.0743L13.6364 27.3141Z" fill="white"/>
<path d="M43.3598 27.3141L44.4262 29.3851C44.4938 29.5152 44.5962 29.6241 44.722 29.6996C44.8478 29.775 44.992 29.8142 45.1387 29.8126H49.0052C49.8301 29.8151 50.6299 29.5285 51.2655 29.0026C51.9011 28.4768 52.3324 27.7449 52.4846 26.9341C52.5047 26.8204 52.4997 26.7037 52.4698 26.5922C52.4399 26.4807 52.3859 26.3771 52.3116 26.2888C52.2373 26.2005 52.1445 26.1295 52.0398 26.081C51.9351 26.0324 51.821 26.0074 51.7056 26.0078H46.5281C46.4184 26.0071 46.31 26.0298 46.2098 26.0743L43.3598 27.3141Z" fill="white"/>
<path d="M55.8576 14.5896C55.8037 14.4855 55.7258 14.3957 55.6305 14.3276C55.5351 14.2595 55.4249 14.215 55.309 14.1977L52.0267 13.7013C51.844 13.673 51.6571 13.6957 51.4865 13.767C51.3159 13.8383 51.1684 13.9554 51.0602 14.1054C50.952 14.2553 50.8875 14.4323 50.8736 14.6167C50.8598 14.801 50.8972 14.9856 50.9818 15.1501L51.7417 16.6083H5.25825L6.01825 15.1501C6.10281 14.9856 6.14023 14.801 6.12639 14.6167C6.11254 14.4323 6.04797 14.2553 5.9398 14.1054C5.83164 13.9554 5.68411 13.8383 5.51352 13.767C5.34294 13.6957 5.15595 13.673 4.97325 13.7013L1.691 14.2001C1.57508 14.2173 1.46491 14.2619 1.36954 14.33C1.27417 14.3981 1.19631 14.4879 1.14237 14.5919L0 16.8126L0.890625 17.7103C0.959623 17.7799 1.04177 17.835 1.13229 17.8725C1.22281 17.9101 1.31989 17.9292 1.41788 17.9288H55.575C55.673 17.9292 55.7701 17.9101 55.8606 17.8725C55.9511 17.835 56.0333 17.7799 56.1022 17.7103L57 16.8126L55.8576 14.5896Z" fill="#00AAFF"/>
<path d="M35.2306 34.1215H21.7643C20.9682 34.124 20.1869 33.9061 19.507 33.492C18.8271 33.0778 18.2751 32.4836 17.9121 31.775L16.7246 29.4641C16.6367 29.295 16.5909 29.1073 16.5909 28.9167C16.5909 28.7261 16.6367 28.5384 16.7246 28.3693L17.3112 27.2625C17.6026 26.7062 18.041 26.2405 18.5787 25.9159C19.1164 25.5914 19.7327 25.4205 20.3607 25.4219H36.6342C37.2619 25.4206 37.878 25.5912 38.4156 25.9153C38.9532 26.2393 39.3918 26.7044 39.6837 27.2601L40.268 28.3693C40.3558 28.5384 40.4017 28.7261 40.4017 28.9167C40.4017 29.1073 40.3558 29.295 40.268 29.4641L39.0805 31.7726C38.7182 32.4814 38.1667 33.0761 37.4872 33.4907C36.8077 33.9053 36.0266 34.1236 35.2306 34.1215ZM19.1162 28.925L20.0235 30.6849C20.1882 31.0041 20.438 31.2715 20.7452 31.4577C21.0524 31.6438 21.4051 31.7413 21.7643 31.7394H35.2306C35.5901 31.7413 35.9431 31.6436 36.2504 31.457C36.5577 31.2704 36.8073 31.0023 36.9715 30.6825L37.8787 28.925L37.5842 28.3621C37.4931 28.1894 37.3563 28.0449 37.1888 27.9444C37.0214 27.8439 36.8295 27.7913 36.6342 27.7921H20.3607C20.1651 27.7912 19.973 27.8441 19.8055 27.9451C19.6379 28.046 19.5013 28.1911 19.4107 28.3645L19.1162 28.925Z" fill="#006999"/>
<path d="M51.7316 16.53L45.7941 2.5935C45.4172 1.82113 44.8324 1.1692 44.1053 0.711037C43.3782 0.252871 42.5377 0.00662927 41.6783 0L14.5178 1.08775C13.7198 1.16148 12.9541 1.43862 12.2938 1.89267C11.6335 2.34673 11.1007 2.96254 10.7463 3.68125L5.28375 16.53H51.7316Z" fill="#006999"/>
<path d="M12.027 42.309H8.05124C7.40161 42.3096 6.7783 42.0523 6.31827 41.5936C5.85824 41.1349 5.59913 40.5124 5.59787 39.8627V38.0957C5.59976 37.4465 5.85914 36.8246 6.31911 36.3664C6.77907 35.9082 7.40202 35.6512 8.05124 35.6519H13.6491C14.124 35.6504 14.589 35.7873 14.9873 36.0459C15.3856 36.3044 15.7 36.6734 15.8919 37.1078C16.0839 37.5421 16.1452 38.0229 16.0683 38.4915C15.9914 38.9601 15.7796 39.3962 15.4589 39.7464L13.8367 41.5134C13.6064 41.7638 13.3267 41.9638 13.0152 42.1007C12.7037 42.2377 12.3672 42.3086 12.027 42.309ZM8.05124 38.034L7.97287 39.8699C7.97409 39.8896 7.98297 39.9081 7.9976 39.9214C8.01223 39.9347 8.03148 39.9418 8.05124 39.9411H12.027L13.7109 38.148L8.05124 38.034Z" fill="#006999"/>
<path d="M48.9567 42.309H44.9809C44.6412 42.3087 44.3052 42.2381 43.9942 42.1015C43.6831 41.965 43.4037 41.7656 43.1735 41.5157L41.549 39.7464C41.2283 39.3962 41.0165 38.9601 40.9396 38.4915C40.8627 38.0229 40.924 37.5421 41.116 37.1078C41.3079 36.6734 41.6223 36.3044 42.0206 36.0459C42.4189 35.7873 42.8839 35.6504 43.3588 35.6519H48.9567C49.6059 35.6512 50.2288 35.9082 50.6888 36.3664C51.1488 36.8246 51.4081 37.4465 51.41 38.0957V39.8627C51.4088 40.5124 51.1497 41.1349 50.6896 41.5936C50.2296 42.0523 49.6063 42.3096 48.9567 42.309ZM43.3588 38.034L44.9215 39.915L48.959 39.9411L49.0374 39.8699V38.1029L43.3588 38.034Z" fill="#006999"/>
</svg>
