<svg width="53" height="57" viewBox="0 0 53 57" fill="none" xmlns="http://www.w3.org/2000/svg">
<path d="M30.79 56.4522C34.2546 56.4522 37.0632 51.2003 37.0632 44.7217C37.0632 38.2431 34.2546 32.9912 30.79 32.9912C27.3254 32.9912 24.5168 38.2431 24.5168 44.7217C24.5168 51.2003 27.3254 56.4522 30.79 56.4522Z" fill="#662BEF"/>
<path d="M35.4949 56.4522C38.9594 56.4522 41.768 51.2003 41.768 44.7217C41.768 38.2431 38.9594 32.9912 35.4949 32.9912C32.0303 32.9912 29.2217 38.2431 29.2217 44.7217C29.2217 51.2003 32.0303 56.4522 35.4949 56.4522Z" fill="#1C1C1C"/>
<path d="M30.6701 49.2214C31.9998 49.2214 33.0778 47.2065 33.0778 44.721C33.0778 42.2356 31.9998 40.2207 30.6701 40.2207C29.3404 40.2207 28.2624 42.2356 28.2624 44.721C28.2624 47.2065 29.3404 49.2214 30.6701 49.2214Z" fill="#A169F7"/>
<path d="M35.4948 32.9912H30.79V35.105H35.4948V32.9912Z" fill="#1C1C1C"/>
<path d="M35.4949 54.2227H30.5337V56.454H35.4949V54.2227Z" fill="#662BEF"/>
<path d="M4.47696 44.7215V40.019C4.48866 38.0762 4.88286 36.1547 5.63717 34.3643C6.39147 32.5738 7.4911 30.9496 8.87318 29.5841C10.2552 28.2186 11.8928 27.1387 13.6922 26.4061C15.4916 25.6734 17.4177 25.3025 19.3605 25.3142C21.4652 25.3121 23.5467 25.754 25.4692 26.6108C27.3916 27.4677 29.1117 28.7204 30.5172 30.2871L32.8074 33.4896C34.9451 36.4718 36.0962 40.0482 36.0992 43.7175V52.998C36.0964 53.4544 36.0037 53.9058 35.8265 54.3264C35.6493 54.7469 35.391 55.1285 35.0663 55.4492C34.7417 55.7699 34.357 56.0235 33.9343 56.1956C33.5116 56.3677 33.0592 56.4548 32.6029 56.452H9.09016L4.47696 44.7215Z" fill="#A169F7"/>
<path d="M7.10564 56.4522C10.5702 56.4522 13.3788 51.2003 13.3788 44.7217C13.3788 38.2431 10.5702 32.9912 7.10564 32.9912C3.64105 32.9912 0.832443 38.2431 0.832443 44.7217C0.832443 51.2003 3.64105 56.4522 7.10564 56.4522Z" fill="#1C1C1C"/>
<path d="M11.8082 56.4522C15.2728 56.4522 18.0814 51.2003 18.0814 44.7217C18.0814 38.2431 15.2728 32.9912 11.8082 32.9912C8.34359 32.9912 5.53499 38.2431 5.53499 44.7217C5.53499 51.2003 8.34359 56.4522 11.8082 56.4522Z" fill="#1C1C1C"/>
<path d="M6.98576 49.2214C8.3155 49.2214 9.39346 47.2065 9.39346 44.721C9.39346 42.2356 8.3155 40.2207 6.98576 40.2207C5.65602 40.2207 4.57806 42.2356 4.57806 44.721C4.57806 47.2065 5.65602 49.2214 6.98576 49.2214Z" fill="#A169F7"/>
<path d="M11.8105 32.9912H7.10563V35.105H11.8105V32.9912Z" fill="#1C1C1C"/>
<path d="M12.4101 54.2227H7.44891V56.454H12.4101V54.2227Z" fill="#1C1C1C"/>
<path d="M42.2383 51.6671H36.7458L34.1899 39.0784L38.0766 41.8622C38.6336 42.2757 39.3024 42.512 39.9956 42.54C40.6889 42.5681 41.3745 42.3867 41.9632 42.0195C42.5518 41.6523 43.0163 41.1164 43.2961 40.4815C43.5758 39.8466 43.6579 39.1422 43.5316 38.46L43.5103 38.3801C43.2164 37.3009 42.5699 36.2991 39.9364 34.0913L15.4833 14.3124C14.0621 13.2688 12.9332 11.8771 12.2052 10.2712C11.4772 8.6653 11.1745 6.89912 11.3262 5.14244C11.5742 3.63489 12.3755 2.27403 13.5734 1.32572C14.7712 0.377408 16.2797 -0.090134 17.804 0.0143951C20.2643 0.136477 22.6271 1.01496 24.5696 2.52991C26.5121 4.04486 27.9397 6.12238 28.6574 8.47891L29.9741 13.3272L28.26 15.0837L44.6461 28.3261C48.113 30.8192 50.7127 34.3349 52.0808 38.3801C54.0699 45.7066 49.6448 51.6671 42.2383 51.6671Z" fill="#A169F7"/>
<path d="M29.9083 13.0308L24.2064 18.8407L33.3529 52.5673H40.6324L29.9083 13.0308Z" fill="#662BEF"/>
<path d="M44.3592 50.1928H28.1142C27.394 50.1498 26.6745 50.287 26.0208 50.5922C25.367 50.8973 24.7997 51.3606 24.3701 51.9403C23.9406 52.52 23.6624 53.1976 23.5607 53.9118C23.4591 54.6261 23.5371 55.3544 23.7879 56.0309L23.8961 56.4307H50.9122L51.7844 54.7024C51.9174 54.4344 51.9831 54.1382 51.9757 53.8391C51.9683 53.54 51.8882 53.2472 51.7422 52.9861C50.4443 50.6301 47.2513 50.1928 44.3592 50.1928Z" fill="#662BEF"/>
<path d="M28.1401 50.1927H44.385C45.1052 50.1499 45.8248 50.2872 46.4785 50.5924C47.1323 50.8975 47.6996 51.3608 48.1293 51.9404C48.559 52.5199 48.8374 53.1974 48.9395 53.9116C49.0415 54.6258 48.9639 55.3542 48.7137 56.0308L48.6055 56.4307H21.5895L20.7171 54.7024C20.5838 54.4346 20.5179 54.1384 20.5248 53.8393C20.5318 53.5402 20.6115 53.2473 20.7571 52.986C22.0573 50.63 25.2481 50.1927 28.1401 50.1927Z" fill="#662BEF"/>
<path d="M37.8086 46.8192H32.5417C32.0432 46.7898 31.5452 46.885 31.0928 47.0963C30.6404 47.3077 30.2478 47.6285 29.9504 48.0297C29.6531 48.4309 29.4604 48.8998 29.3898 49.3942C29.3192 49.8885 29.373 50.3926 29.5462 50.861L30.1434 53.0571H43.5927L42.9954 50.861C42.6531 49.7347 41.9709 48.7418 41.0423 48.0182C40.1138 47.2947 38.9844 46.8759 37.8086 46.8192Z" fill="#662BEF"/>
<path d="M23.494 17.1853C23.2333 17.188 22.9792 17.104 22.7715 16.9465C22.5638 16.789 22.4144 16.567 22.3466 16.3153L19.9671 7.54513C19.9271 7.39521 19.9171 7.23881 19.9379 7.08503C19.9586 6.93126 20.0096 6.78318 20.0878 6.64919C20.1661 6.51521 20.27 6.39794 20.3938 6.30434C20.5175 6.21074 20.6586 6.14253 20.8088 6.10371C21.1122 6.02224 21.4354 6.06403 21.708 6.21996C21.9807 6.37588 22.1807 6.63331 22.2643 6.93607L24.6438 15.7064C24.6906 15.8817 24.6962 16.0653 24.6602 16.2431C24.6242 16.4209 24.5475 16.5881 24.4361 16.7314C24.3247 16.8746 24.1817 16.9901 24.0183 17.0689C23.8548 17.1476 23.6754 17.1874 23.494 17.1853Z" fill="#662BEF"/>
<path d="M32.4806 55.5675C32.1783 55.5678 31.8875 55.4517 31.6686 55.2433C31.4497 55.0349 31.3195 54.7502 31.305 54.4482C31.3225 54.1044 31.238 53.7629 31.0624 53.4668C30.8867 53.1707 30.6276 52.933 30.3174 52.7835C30.1698 52.737 30.0328 52.6618 29.9144 52.5622C29.7959 52.4627 29.6983 52.3406 29.6271 52.2032C29.5558 52.0658 29.5124 51.9157 29.4993 51.7615C29.4863 51.6072 29.5038 51.4519 29.5509 51.3045C29.6509 51.0067 29.8641 50.7604 30.1444 50.6187C30.4247 50.477 30.7496 50.4514 31.0487 50.5475C31.8199 50.8381 32.4847 51.3561 32.955 52.033C33.4252 52.7098 33.6788 53.5136 33.6821 54.3377C33.6893 54.4931 33.6657 54.6484 33.6125 54.7945C33.5593 54.9407 33.4776 55.0748 33.3722 55.1892C33.2668 55.3036 33.1397 55.3959 32.9984 55.4609C32.857 55.5258 32.7042 55.5621 32.5488 55.5675H32.4806Z" fill="#A169F7"/>
</svg>
