<svg width="53" height="52" viewBox="0 0 53 52" fill="none" xmlns="http://www.w3.org/2000/svg">
<path d="M26.2193 17.2523C23.7666 17.2523 21.3095 17.144 18.8719 16.9295C17.3819 16.7312 15.9826 16.1011 14.8464 15.117C13.7102 14.1329 12.8869 12.8378 12.478 11.3913C12.1508 9.57581 12.1508 7.71642 12.478 5.90089C12.8782 4.45087 13.6947 3.14997 14.8265 2.15912C15.9583 1.16827 17.3557 0.530947 18.8459 0.325926C23.7475 -0.108642 28.678 -0.108642 33.5796 0.325926C35.0699 0.523454 36.4697 1.15321 37.606 2.13743C38.7423 3.12166 39.5654 4.41716 39.9736 5.86399C40.3008 7.6788 40.3008 9.53752 39.9736 11.3523C39.574 12.8029 38.7577 14.1044 37.6258 15.0957C36.494 16.087 35.0962 16.7246 33.6056 16.9295H33.571C31.1313 17.144 28.6764 17.2523 26.2193 17.2523ZM26.2193 4.33867C23.8901 4.33867 21.5587 4.44056 19.2403 4.6464C18.6832 4.76139 18.1619 5.00854 17.7203 5.36714C17.2788 5.72574 16.9299 6.18528 16.7031 6.70693C16.4745 7.98817 16.4745 9.29969 16.7031 10.5809C16.9388 11.0985 17.2945 11.5524 17.7406 11.9051C18.1867 12.2578 18.7105 12.4991 19.2685 12.6091C23.8876 13.0153 28.5336 13.0153 33.1528 12.6091C33.7134 12.4957 34.2387 12.249 34.684 11.89C35.1294 11.531 35.4818 11.0701 35.7116 10.5463C35.9391 9.26422 35.9391 7.9521 35.7116 6.67003C35.4759 6.1527 35.1202 5.69911 34.674 5.34678C34.2279 4.99444 33.7042 4.75354 33.1463 4.64415C30.8647 4.44048 28.5507 4.33867 26.2301 4.33867H26.2193Z" fill="#FF6163"/>
<path d="M25.1403 40.4528C17.9446 38.0694 10.5301 35.5798 3.03978 33.1314C2.28567 32.893 1.6211 32.4325 1.13319 31.81C0.645277 31.1875 0.356715 30.4322 0.30533 29.643C0.0995762 24.006 0.244329 18.3617 0.7387 12.7427C0.855911 11.7567 1.31436 10.8428 2.03458 10.1594C2.7548 9.47594 3.69143 9.06601 4.68214 9.00062C19.0403 8.4705 33.3998 8.4705 47.7608 9.00062C48.7517 9.06559 49.6885 9.47546 50.4088 10.159C51.1291 10.8425 51.5874 11.7566 51.7042 12.7427C52.1975 18.3618 52.3423 24.006 52.1376 29.643C52.0862 30.4322 51.7977 31.1875 51.3098 31.81C50.8218 32.4325 50.1573 32.893 49.4032 33.1314C41.9193 35.5798 34.507 38.0781 27.3027 40.4528C26.601 40.6874 25.842 40.6874 25.1403 40.4528Z" fill="#FFB000"/>
<path d="M50.6013 49.4454C51.7924 42.0939 52.0415 34.6207 51.3424 27.2062C34.7944 26.6357 18.2479 26.6357 1.70286 27.2062C1.00377 34.6207 1.25274 42.0939 2.44383 49.4454C2.57069 50.0523 2.8943 50.6004 3.3644 51.0047C3.8345 51.409 4.42485 51.647 5.04392 51.6815C19.3573 52.1062 33.6706 52.1062 47.9839 51.6815C48.606 51.6507 49.2004 51.4144 49.674 51.0099C50.1475 50.6053 50.4737 50.055 50.6013 49.4454Z" fill="#FFB000"/>
<path d="M26.5465 40.473C25.8074 40.4722 25.0741 40.3425 24.3797 40.0895L2.71256 32.1831C2.4419 32.0855 2.22111 31.8842 2.09881 31.6237C1.9765 31.3633 1.9627 31.065 2.06039 30.7943C2.15808 30.5236 2.35926 30.3029 2.61972 30.1805C2.88019 30.0582 3.17858 30.0444 3.44924 30.1421L25.1164 38.0484C26.0471 38.3874 27.0674 38.3874 27.9981 38.0484L49.0153 30.3783C49.1493 30.33 49.2915 30.3087 49.4338 30.3154C49.5761 30.3222 49.7156 30.3569 49.8445 30.4175C49.9734 30.4782 50.089 30.5636 50.1848 30.6689C50.2807 30.7743 50.3549 30.8975 50.4031 31.0315C50.4513 31.1656 50.4726 31.3077 50.4659 31.45C50.4592 31.5922 50.4245 31.7319 50.3639 31.8607C50.3032 31.9896 50.2178 32.1053 50.1124 32.2011C50.0071 32.297 49.8838 32.3711 49.7498 32.4193L28.7327 40.0895C28.032 40.3443 27.292 40.4741 26.5465 40.473Z" fill="#FF6163"/>
<path d="M29.0685 34.5078H23.3766C22.2852 34.5078 21.4005 35.3925 21.4005 36.4839V39.6754C21.4005 40.7668 22.2852 41.6515 23.3766 41.6515H29.0685C30.1599 41.6515 31.0446 40.7668 31.0446 39.6754V36.4839C31.0446 35.3925 30.1599 34.5078 29.0685 34.5078Z" fill="#FFB000"/>
<path d="M29.0707 42.737H23.3701C22.559 42.7335 21.7824 42.4087 21.2106 41.8336C20.6387 41.2585 20.3181 40.4801 20.3193 39.669V36.4882C20.3187 35.6775 20.6395 34.8996 21.2113 34.3249C21.7831 33.7503 22.5594 33.4258 23.3701 33.4224H29.0707C29.8815 33.4252 30.6582 33.7496 31.2301 34.3244C31.802 34.8992 32.1226 35.6774 32.1214 36.4882V39.669C32.1232 40.4802 31.8028 41.2589 31.2308 41.8341C30.6588 42.4094 29.8819 42.7341 29.0707 42.737ZM23.3701 35.5868C23.1335 35.588 22.907 35.6828 22.7401 35.8505C22.5732 36.0182 22.4795 36.2452 22.4795 36.4817V39.6624C22.4795 39.8992 22.5732 40.1264 22.74 40.2944C22.9068 40.4624 23.1333 40.5577 23.3701 40.5594H29.0707C29.3078 40.5583 29.5349 40.4633 29.7022 40.2952C29.8695 40.1271 29.9634 39.8995 29.9634 39.6624V36.4817C29.9634 36.2448 29.8694 36.0175 29.7021 35.8497C29.5347 35.682 29.3076 35.5874 29.0707 35.5868H23.3701Z" fill="#FF6163"/>
<path d="M30.4444 39.1643H21.3983C21.111 39.1643 20.8355 39.0502 20.6323 38.847C20.4291 38.6438 20.315 38.3682 20.315 38.0809C20.315 37.7936 20.4291 37.5181 20.6323 37.3149C20.8355 37.1118 21.111 36.9976 21.3983 36.9976H30.4444C30.7317 36.9976 31.0073 37.1118 31.2105 37.3149C31.4136 37.5181 31.5277 37.7936 31.5277 38.0809C31.5277 38.3682 31.4136 38.6438 31.2105 38.847C31.0073 39.0502 30.7317 39.1643 30.4444 39.1643Z" fill="#FF6163"/>
</svg>
