<svg width="55" height="57" viewBox="0 0 55 57" fill="none" xmlns="http://www.w3.org/2000/svg">
<path d="M1.98903 35.8644L0.362159 32.3138C0.338409 32.2592 0.312284 32.2045 0.290909 32.1499L1.91778 35.6934C1.93995 35.7488 1.9637 35.8058 1.98903 35.8644Z" fill="#FFB000"/>
<path d="M38.2672 36.0354L39.894 39.5789L1.91778 35.6934L0.290909 32.1499L38.2672 36.0354Z" fill="#FFB000"/>
<path d="M1.9857 35.8636L0.358826 32.313C0.481747 32.5934 0.641486 32.8562 0.833826 33.0944L0.940701 33.2155C0.992951 33.2701 1.0452 33.3247 1.09983 33.377L2.7267 36.9205C2.67208 36.8682 2.61745 36.8136 2.56758 36.759L2.45833 36.6379C2.26807 36.4012 2.10921 36.141 1.9857 35.8636Z" fill="#FFB000"/>
<path d="M1.93688 35.8101L0.31001 32.2666C0.447875 32.5661 0.627817 32.8444 0.844385 33.0931L2.46888 36.6366C2.25333 36.3877 2.07421 36.1094 1.93688 35.8101Z" fill="#FFB000"/>
<path d="M42.7571 37.857C41.2073 39.0433 39.4522 39.9337 37.5796 40.4838C37.1046 39.4403 36.6256 38.3977 36.1427 37.3559L35.9527 36.9403C37.8256 36.3893 39.5814 35.4989 41.1326 34.3135C44.1057 32.0108 46.731 29.2911 48.9273 26.2385C53.0575 20.3604 53.9647 14.7791 52.0623 10.6348L53.6821 14.1735C55.5821 18.3179 54.6772 23.911 50.5471 29.7773C48.3524 32.8311 45.7287 35.5523 42.7571 37.857Z" fill="#C42F37"/>
<path d="M38.2659 36.0317L39.8928 39.5752C39.1423 39.9346 38.3659 40.2371 37.57 40.4801L35.9432 36.9366C36.7391 36.694 37.5156 36.3915 38.2659 36.0317Z" fill="#FFB000"/>
<path d="M40.5598 3.77536C53.0119 5.05786 56.7335 15.1136 48.9198 26.2334C46.7234 29.2859 44.0981 32.0056 41.125 34.3084C39.5738 35.4937 37.818 36.3841 35.9451 36.9351C36.7411 36.6925 37.5176 36.39 38.2679 36.0302L0.291638 32.1495C0.426558 32.493 0.614045 32.8135 0.847388 33.0995C0.49641 32.6961 0.243986 32.2166 0.110032 31.6989C-0.0239213 31.1812 -0.0357384 30.6395 0.0755132 30.1165C0.743965 27.0483 2.05262 24.1558 3.91589 21.6282C11.7273 10.5085 28.1314 2.51186 40.5598 3.77536Z" fill="#FF6163"/>
<path d="M38.2672 36.0354L0.290909 32.1499C0.425829 32.4934 0.613316 32.8139 0.846659 33.0999L0.953534 33.221C1.00578 33.2757 1.05803 33.3303 1.11266 33.3825L2.73953 36.926L8.77203 42.721C8.63061 43.1183 8.43047 43.4922 8.17828 43.8302C6.47347 46.1633 4.64528 48.4037 2.70153 50.5419C2.49216 50.7201 2.34156 50.9574 2.26951 51.2228C2.19745 51.4881 2.20731 51.769 2.29778 52.0287L2.28116 52.0144L3.44253 54.71C3.70198 55.2948 4.11151 55.8006 4.62956 56.176C5.14762 56.5514 5.75576 56.7831 6.39228 56.8475L7.36366 56.952C8.66831 57.0614 9.98204 56.9693 11.2587 56.6789C11.7494 56.5871 12.2158 56.3947 12.6287 56.1139C13.0415 55.8331 13.3917 55.47 13.6574 55.0473C14.8633 52.6788 16.2174 50.3887 17.7115 48.1907L17.7947 48.0672C18.8997 46.6453 20.4312 45.6149 22.1647 45.1269L37.5713 40.479L35.9444 36.9355C36.7402 36.6945 37.5167 36.3936 38.2672 36.0354Z" fill="#FFB000"/>
<path d="M23.3225 42.8813C23.0418 42.8801 22.7706 42.7796 22.557 42.5974C22.3434 42.4153 22.2012 42.1635 22.1557 41.8865C22.1101 41.6095 22.1642 41.3253 22.3082 41.0844C22.4522 40.8435 22.677 40.6614 22.9425 40.5704L35.7509 36.2289C35.8998 36.1739 36.0582 36.1493 36.2168 36.1565C36.3754 36.1638 36.5309 36.2028 36.6742 36.2712C36.8175 36.3396 36.9455 36.436 37.0509 36.5548C37.1562 36.6735 37.2367 36.8122 37.2875 36.9626C37.3384 37.113 37.3585 37.2721 37.3468 37.4304C37.3351 37.5887 37.2917 37.7431 37.2193 37.8844C37.1469 38.0257 37.0469 38.151 36.9252 38.253C36.8035 38.3549 36.6627 38.4315 36.5109 38.478L23.7049 42.8195C23.5817 42.8609 23.4525 42.8818 23.3225 42.8813Z" fill="#FF7900"/>
<path d="M10.1863 52.7659C9.95902 52.7658 9.73656 52.7006 9.54529 52.5779C9.35402 52.4552 9.20198 52.2801 9.10721 52.0736C9.01244 51.8671 8.97893 51.6377 9.01064 51.4126C9.04236 51.1876 9.13797 50.9764 9.28614 50.8041L20.9046 37.3213C21.0053 37.1998 21.1292 37.0996 21.269 37.0266C21.4089 36.9535 21.5619 36.9091 21.7191 36.8958C21.8763 36.8825 22.0345 36.9007 22.1846 36.9493C22.3347 36.9979 22.4736 37.0759 22.5932 37.1788C22.7129 37.2817 22.8108 37.4074 22.8813 37.5485C22.9517 37.6897 22.9934 37.8434 23.0038 38.0009C23.0142 38.1583 22.9931 38.3162 22.9418 38.4654C22.8905 38.6146 22.8099 38.752 22.7049 38.8698L11.0864 52.3526C10.9749 52.4822 10.8368 52.5863 10.6815 52.6576C10.5261 52.7289 10.3572 52.7658 10.1863 52.7659Z" fill="#FF7900"/>
<path d="M10.1904 41.6707C9.97225 41.6704 9.75838 41.6101 9.57226 41.4963C9.38615 41.3824 9.23498 41.2195 9.13536 41.0254C9.03574 40.8314 8.99151 40.6136 9.00753 40.396C9.02355 40.1784 9.09919 39.9695 9.22617 39.7921L11.6463 36.4267C11.7352 36.2952 11.8497 36.183 11.9827 36.0965C12.1158 36.01 12.2649 35.9511 12.4211 35.9232C12.5774 35.8954 12.7376 35.8991 12.8924 35.9342C13.0472 35.9693 13.1934 36.0351 13.3223 36.1277C13.4512 36.2202 13.5603 36.3377 13.643 36.4731C13.7258 36.6086 13.7806 36.7592 13.8041 36.9162C13.8276 37.0731 13.8195 37.2332 13.7801 37.387C13.7407 37.5407 13.6709 37.685 13.5748 37.8113L11.1547 41.1767C11.0446 41.3296 10.8998 41.4542 10.7322 41.5401C10.5645 41.626 10.3788 41.6707 10.1904 41.6707Z" fill="#FF7900"/>
<path d="M20.2441 20.3706C24.6193 16.7739 26.7151 12.093 24.9251 9.91553C23.1351 7.73804 18.1371 8.88852 13.7619 12.4852C9.38664 16.0819 7.2909 20.7628 9.08091 22.9403C10.8709 25.1177 15.8688 23.9673 20.2441 20.3706Z" fill="#C42F37"/>
<path d="M12.6041 20.1922C18.3309 20.1922 22.9734 15.6721 22.9734 10.0961C22.9734 4.52019 18.3309 0 12.6041 0C6.87737 0 2.2349 4.52019 2.2349 10.0961C2.2349 15.6721 6.87737 20.1922 12.6041 20.1922Z" fill="#FFB000"/>
<path d="M6.47176 8.49915C6.83682 7.2995 6.49594 6.13321 5.7104 5.89417C4.92485 5.65513 3.99211 6.43386 3.62706 7.63351C3.262 8.83316 3.60288 9.99945 4.38842 10.2385C5.17397 10.4775 6.10671 9.6988 6.47176 8.49915Z" fill="white"/>
<path d="M8.05954 4.22372C8.55008 3.72559 8.68864 3.0666 8.36901 2.75185C8.04938 2.43709 7.3926 2.58575 6.90206 3.08388C6.41151 3.58202 6.27296 4.241 6.59259 4.55576C6.91222 4.87052 7.569 4.72186 8.05954 4.22372Z" fill="white"/>
</svg>
